<svg xmlns="http://www.w3.org/2000/svg" xmlns:xlink="http://www.w3.org/1999/xlink" width="1920" height="642" viewBox="0 0 1920 642">
  <defs>
    <clipPath id="clip-wosvo-logo-light">
      <rect width="1920" height="642"/>
    </clipPath>
  </defs>
  <g id="wosvo-logo-light" clip-path="url(#clip-wosvo-logo-light)">
    <g id="logo-dark" transform="translate(19.148 23.58)">
      <g id="Group_3" data-name="Group 3" transform="translate(4.34 4.42)">
        <path id="Path_19" data-name="Path 19" d="M279.474,331.729,253.38,239.2l-14.706,51.575q-11.26,43.89-31.558,67.507-20.3,23.668-42.792,23.643-43.2,0-68.273-70.06L4.34,6.45l80.937.1L166.213,280.92q9.651,31.787,20.221,31.813,10.57,0,21.089-32.681l30.792-97.226L187.762,6.45l80.937.1,80.528,295.253c4.238,7.3,8.221,10.928,11.9,10.928,6.689,0,12.511-7.762,17.362-23.234L467.339,6.45h35.49L410.964,301.4q-10.417,38.068-31.558,58.417-21.217,20.3-43.66,20.324-41.515,0-56.222-48.46Z" transform="translate(-4.34 3.916)" fill="#f1f1f1"/>
        <path id="Path_20" data-name="Path 20" d="M103.96,197.749q0-84.562,59.694-140.682Q219.876,4.446,297.749,4.42c51.881,0,95.745,17.566,133.226,52.647q59.668,56.145,59.694,140.682c0,56.375-19.915,102.435-59.694,139.865q-56.222,52.7-133.226,52.647c-51.319,0-96.613-17.566-134.095-52.647Q103.986,281.545,103.96,197.749ZM297.749,359.98q55.379,0,86.5-57.8Q409.3,255.6,409.324,197.8c0-38.553-8.374-72.46-25.072-103.558q-32.017-58.673-86.5-58.673-54.46,0-86.5,57.8-25.966,47.49-25.941,104.375,0,56.911,25.073,103.558,32.017,58.673,87.371,58.673Z" transform="translate(404.741 -4.42)" fill="#f1f1f1"/>
        <path id="Path_21" data-name="Path 21" d="M257.48,209.736q-36.307-21.6-55.354-51.013-19.073-29.413-19.047-57.958,0-39.753,28.953-67.047Q240.987,6.45,287.761,6.45h91.711V36.731h-71.8q-56.222,13.021-56.222,42.383,0,36.383,87.371,79.609c26.5,16.136,47.183,35.643,61.839,58.417q22.06,34.162,22.06,68.783,0,37.226-29.413,61.839-29.413,24.664-85.635,24.664H186.552V342.146H277.4q31.175,0,48.868-10.366c11.8-6.945,17.719-16.7,17.719-29.413s-6.638-26.5-19.915-41.515q-22.519-25.047-66.639-51.064Z" transform="translate(729.641 3.916)" fill="#f1f1f1"/>
        <path id="Path_22" data-name="Path 22" d="M232.39,6.491h81.141l81.09,284.734q7.047,24.128,15.932,24.1,12.332,0,25.634-44.017L514.775,6.542l32.885-.1L455.643,311.855q-7.813,32.017-26.4,49.736-18.613,17.694-39.37,17.719c-13.838,0-25.94-4.9-38.094-14.707Q333.625,349.9,324.1,321.353L232.39,6.44Z" transform="translate(932.128 3.875)" fill="#f1f1f1"/>
        <path id="Path_23" data-name="Path 23" d="M296.93,197.749q0-84.562,59.694-140.682Q412.846,4.446,490.718,4.42c51.881,0,95.745,17.566,133.227,52.647q59.669,56.145,59.694,140.682c0,56.375-19.915,102.435-59.694,139.865q-56.222,52.7-133.227,52.647c-51.319,0-96.613-17.566-134.095-52.647Q296.955,281.545,296.93,197.749ZM490.718,359.98q55.379,0,86.5-57.8Q602.268,255.6,602.294,197.8c0-38.553-8.375-72.46-25.073-103.558q-32.017-58.673-86.5-58.673-54.46,0-86.5,57.8-25.966,47.49-25.941,104.375,0,56.911,25.073,103.558,32.017,58.673,87.371,58.673Z" transform="translate(1197.156 -4.42)" fill="#f1f1f1"/>
      </g>
      <g id="Group_4" data-name="Group 4" transform="translate(386.964 493.819)">
        <path id="Path_24" data-name="Path 24" d="M89.074,190.746H96.53v6.383H79.27V100.26H96.53v6.383H89.074v84.052Z" transform="translate(-79.27 -100.26)" fill="#f1f1f1"/>
        <path id="Path_25" data-name="Path 25" d="M102.2,178.449v-7.455h9.038V130.806H102.2v-7.251h18.843v47.387h9.038V178.4H102.2Zm8.426-67.354V100.27h10.417V111.1Z" transform="translate(14.89 -100.219)" fill="#f1f1f1"/>
        <path id="Path_26" data-name="Path 26" d="M114.16,160.874v-7.455h8.987V113.231H114.16V105.98h18.281v9.5a25.49,25.49,0,0,1,8.272-8.272,20.014,20.014,0,0,1,10.417-2.655c6.485,0,11.234,1.583,14.349,4.749,3.064,3.166,4.647,8.17,4.647,14.911v29.158h9.141v7.455h-28.7v-7.455h9.958V124.21c0-4.136-.97-7.251-2.962-9.345-1.94-2.094-4.9-3.115-8.783-3.115A15.016,15.016,0,0,0,137.19,116.5c-2.911,3.166-4.34,7.353-4.34,12.613v24.307h10.06v7.455H114.16Z" transform="translate(64.003 -82.643)" fill="#f1f1f1"/>
        <path id="Path_27" data-name="Path 27" d="M143.291,124.441H132.67V117.19h10.621V105.5l9.6-3.677v15.37h16.8v7.251h-16.8V158.4c0,3.217.357,5.311,1.123,6.332s2.094,1.532,4.085,1.532a5.984,5.984,0,0,0,5.311-2.5c1.123-1.634,1.685-4.238,1.685-7.711h7.353v1.072c0,5.26-1.226,9.294-3.677,12.2-2.451,2.86-5.975,4.34-10.519,4.34q-7.813,0-11.336-3.217c-2.349-2.145-3.575-5.566-3.575-10.264V124.595Z" transform="translate(140.013 -93.854)" fill="#f1f1f1"/>
        <path id="Path_28" data-name="Path 28" d="M191.794,143.685h8.987c-1.226,6.128-4.085,10.723-8.477,13.889-4.392,3.115-10.264,4.7-17.566,4.7-8.425,0-15.064-2.6-19.966-7.762-4.851-5.158-7.3-12.2-7.3-21.141s2.5-15.626,7.557-20.885c5-5.26,11.643-7.915,19.915-7.915q13.1,0,20.221,8.119c4.749,5.413,7.1,13.175,7.1,23.234h-44.63c.153,5.923,1.787,10.519,4.851,13.889,3.064,3.319,7.251,5,12.562,5,4.6,0,8.323-.97,11.234-2.911a12.4,12.4,0,0,0,5.464-8.221Zm-33.856-15.166h34.111q-1-8.272-5.362-12.715c-2.911-2.911-6.843-4.392-11.694-4.392a16.293,16.293,0,0,0-11.9,4.545C160.083,119.021,158.347,123.157,157.938,128.519Z" transform="translate(200.788 -82.561)" fill="#f1f1f1"/>
        <path id="Path_29" data-name="Path 29" d="M183.778,153.542h11.438V161H165.14v-7.455h9.038V113.354H165.14V106.1h18.281v9.191a18.709,18.709,0,0,1,18.23-10.775h1.736a3.4,3.4,0,0,1,1.072.153v8.834c-.255,0-.817-.1-1.685-.2a18.626,18.626,0,0,0-1.941-.153c-5.719,0-9.958,1.736-12.817,5.208-2.809,3.472-4.238,8.681-4.238,15.575v19.609Z" transform="translate(273.348 -82.767)" fill="#f1f1f1"/>
        <path id="Path_30" data-name="Path 30" d="M218.8,160.833v-9.4a21.918,21.918,0,0,1-7.711,8.221,20.877,20.877,0,0,1-10.621,2.655q-9.651,0-15.166-4.6c-3.677-3.064-5.515-7.251-5.515-12.613,0-5.821,2.349-10.162,7.047-13.072s11.643-4.392,20.936-4.392c1.277,0,3.779,0,7.557.1,1.277,0,2.247.1,2.962.1V123.76c0-4.136-1.072-7.2-3.166-9.089-2.145-1.889-5.515-2.86-10.162-2.86-4.034,0-7.047.817-9.038,2.5-2.043,1.685-3.268,4.289-3.779,7.915H181.986c.613-5.821,2.911-10.264,6.945-13.226s9.651-4.443,16.9-4.443,12.868,1.583,16.545,4.8c3.728,3.217,5.566,8.017,5.566,14.4v29.617h8.936v7.455Zm-.46-25.583c-1.838-.1-3.523-.2-5.055-.255s-2.859-.1-3.983-.1c-6.638,0-11.54.868-14.706,2.706a8.943,8.943,0,0,0-4.749,8.323,7.721,7.721,0,0,0,3.115,6.383,13.07,13.07,0,0,0,8.272,2.451c5.26,0,9.4-1.634,12.46-4.9,3.064-3.319,4.6-7.762,4.6-13.379V135.3Z" transform="translate(333.507 -82.602)" fill="#f1f1f1"/>
        <path id="Path_31" data-name="Path 31" d="M239.421,142.409h8.936c-.868,6.638-3.319,11.592-7.353,14.911s-9.6,4.953-16.8,4.953c-8.119,0-14.553-2.6-19.353-7.864-4.8-5.209-7.251-12.255-7.251-21.141s2.4-15.728,7.2-20.936,11.234-7.762,19.3-7.762a21.861,21.861,0,0,1,9.243,1.94,18.718,18.718,0,0,1,7,5.821v-6.383h7.1V126.63h-7.2c-.2-4.545-1.685-8.068-4.443-10.672-2.757-2.553-6.434-3.83-11.081-3.83a15.175,15.175,0,0,0-12.409,5.617c-3.013,3.779-4.545,8.936-4.545,15.523s1.481,11.745,4.494,15.472c2.962,3.779,7.047,5.617,12.2,5.617a15.289,15.289,0,0,0,10.009-3.217,13.668,13.668,0,0,0,4.9-8.783Z" transform="translate(406.642 -82.561)" fill="#f1f1f1"/>
        <path id="Path_32" data-name="Path 32" d="M224.571,124.441H213.95V117.19h10.621V105.5l9.6-3.677v15.37h16.8v7.251h-16.8V158.4c0,3.217.357,5.311,1.123,6.332s2.094,1.532,4.085,1.532a5.985,5.985,0,0,0,5.311-2.5c1.123-1.634,1.685-4.238,1.685-7.711h7.353v1.072c0,5.26-1.226,9.294-3.677,12.2-2.451,2.86-5.975,4.34-10.519,4.34q-7.813,0-11.336-3.217c-2.349-2.145-3.574-5.566-3.574-10.264V124.595Z" transform="translate(473.782 -93.854)" fill="#f1f1f1"/>
        <path id="Path_33" data-name="Path 33" d="M228.64,178.449v-7.455h8.987V130.806H228.64v-7.251h18.843v47.387h9.038V178.4H228.64Zm8.426-67.354V100.27h10.417V111.1Z" transform="translate(534.105 -100.219)" fill="#f1f1f1"/>
        <path id="Path_34" data-name="Path 34" d="M276.456,159.724H264.711l-18.434-47.643H240.2V104.83h25.736v7.251h-9.345l14.451,39.575,14.809-39.575h-9.345V104.83h24.97v7.251h-6.025l-18.945,47.643Z" transform="translate(581.576 -81.494)" fill="#f1f1f1"/>
        <path id="Path_35" data-name="Path 35" d="M303.055,143.685h8.936c-1.226,6.128-4.034,10.723-8.477,13.889-4.392,3.115-10.264,4.7-17.566,4.7-8.425,0-15.064-2.6-19.966-7.762-4.851-5.158-7.3-12.2-7.3-21.141s2.5-15.626,7.557-20.885c5-5.26,11.643-7.915,19.915-7.915q13.1,0,20.221,8.119c4.749,5.413,7.1,13.175,7.1,23.234h-44.63c.153,5.923,1.787,10.519,4.851,13.889,3.064,3.319,7.251,5,12.562,5,4.6,0,8.324-.97,11.234-2.911a12.4,12.4,0,0,0,5.464-8.221ZM269.2,128.519H303.31q-1-8.272-5.362-12.715c-2.911-2.911-6.843-4.392-11.694-4.392a16.292,16.292,0,0,0-11.9,4.545C271.344,119.021,269.608,123.157,269.2,128.519Z" transform="translate(657.462 -82.561)" fill="#f1f1f1"/>
        <path id="Path_36" data-name="Path 36" d="M296.713,190.7V106.653H289.36V100.27h17.158v96.869H289.36v-6.383h7.353Z" transform="translate(783.447 -100.219)" fill="#f1f1f1"/>
      </g>
      <rect id="Rectangle_2" data-name="Rectangle 2" width="1677.05" height="3.166" transform="translate(107.081 437.138)" fill="#f1f1f1"/>
    </g>
  </g>
</svg>
